<svg xmlns="http://www.w3.org/2000/svg" width="197" height="81" viewBox="0 0 197 81">
  <g id="그룹_36" data-name="그룹 36" transform="translate(-584.5 -257.501)">
    <rect id="사각형_1" data-name="사각형 1" width="196" height="80" transform="translate(585 258.001)" fill="none" stroke="rgba(255,255,255,0)" stroke-width="1"/>
    <g id="그룹_1" data-name="그룹 1" transform="translate(612.1 275.075)">
      <path id="패스_1" data-name="패스 1" d="M128,26.1a13.4,13.4,0,1,0,13.4,13.4A13.4,13.4,0,0,0,128,26.1Zm0,19.8a6.4,6.4,0,1,1,6.4-6.4A6.38,6.38,0,0,1,128,45.9Z" transform="translate(-27.1 -17.074)" fill="#fff"/>
      <path id="패스_2" data-name="패스 2" d="M53.4,26.5H48.5A5.767,5.767,0,0,0,44.2,28l-9.7,9.4V27a.645.645,0,0,0-.6-.6H27.7a.645.645,0,0,0-.6.6V52.4a.645.645,0,0,0,.6.6H34a.645.645,0,0,0,.6-.6V41.9l10,9.9A5.766,5.766,0,0,0,48.4,53h4.7c1.5,0,1-.9,1-.9L41.7,39.7,54.1,27.3S54.9,26.5,53.4,26.5Z" transform="translate(-27.1 -17.074)" fill="#fff"/>
      <path id="패스_3" data-name="패스 3" d="M81.9,26.5H77A5.767,5.767,0,0,0,72.7,28l-9.5,9.3V27a.645.645,0,0,0-.6-.6H56.4a.645.645,0,0,0-.6.6V52.4a.645.645,0,0,0,.6.6h6.2a.645.645,0,0,0,.6-.6V42.1L73,51.8A5.766,5.766,0,0,0,76.8,53h4.7c1.5,0,1-.9,1-.9L70.3,39.7,82.7,27.3S83.5,26.5,81.9,26.5Z" transform="translate(-27.1 -17.074)" fill="#fff"/>
      <path id="패스_4" data-name="패스 4" d="M168.4,52l-9.8-12.3,9.5-12.3s.8-.9-.7-.9h-4c-1.9,0-3.1.2-4,1.4l-4.8,6.7-5.1-6.8c-1-1.2-2.1-1.3-4-1.3h-3.9c-1.5,0-.8.9-.8.9l9.8,12.3L141,52.1s-.6.9,1,.9h3.6c1.2,0,3.1.1,4.2-1.1,0,0,2.6-3.8,5-6.9,2.4,3.1,5,6.8,5,6.8C161,53,163,53,164.2,53h3.3C168.9,52.9,168.4,52,168.4,52Z" transform="translate(-27.1 -17.074)" fill="#fff"/>
      <path id="패스_5" data-name="패스 5" d="M98.6,26.5a10.394,10.394,0,0,0-6.3,3v-12c0-.3-.2-.5-.5-.4l-6.3,2.4a.891.891,0,0,0-.5.8V52.4a.645.645,0,0,0,.6.6h6.2a.472.472,0,0,0,.5-.5V41.1h0v.6a9.255,9.255,0,0,1,6.6-8.8,5.16,5.16,0,0,1,6.7,5.2c0,3.6-3.1,7.5-6.7,8a6.486,6.486,0,0,1-3.5-.3v7h3.4a13.243,13.243,0,0,0,13.7-13.2C112.6,31.5,106.9,25.8,98.6,26.5Z" transform="translate(-27.1 -17.074)" fill="#fff"/>
    </g>
  </g>
</svg>
