<svg xmlns="http://www.w3.org/2000/svg" width="57.595" height="46.976" viewBox="0 0 57.595 46.976">
  <g id="그룹_37" data-name="그룹 37" transform="translate(-711 -202)">
    <g id="그룹_8" data-name="그룹 8" transform="translate(711 202)">
      <path id="패스_8" data-name="패스 8" d="M664.063,360.731v-7.672l-5.457-1.375Z" transform="translate(-624.025 -313.755)" fill="#0094af"/>
      <path id="패스_9" data-name="패스 9" d="M660.838,241.881l-13.657-7.114a4.026,4.026,0,0,0-2.252-.324L605.5,242.205a1.531,1.531,0,0,0-1.182,1.438V264.99a1.513,1.513,0,0,0,1.185,1.427l38.852,7.284v7.672l16.476-14.646c.5-.526,1.082-1.075,1.082-1.738V243.643A2.189,2.189,0,0,0,660.838,241.881Z" transform="translate(-604.313 -234.397)" fill="#00adcc"/>
    </g>
    <g id="그룹_7" data-name="그룹 7" transform="translate(717.098 218.341)">
      <path id="패스_10" data-name="패스 10" d="M628.633,292.709h-3.74v-5.838h1.3V291.7h2.438Z" transform="translate(-624.893 -286.242)" fill="#fff"/>
      <path id="패스_11" data-name="패스 11" d="M638.789,293.3v.114c0,.786.533,1.127,1.259,1.127a4.427,4.427,0,0,0,1.285-.183l.1.909a5.688,5.688,0,0,1-1.538.235c-1.276,0-2.3-.612-2.3-2.473a2,2,0,0,1,2.115-2.211c1.345,0,1.852.743,1.852,1.7a3.566,3.566,0,0,1-.1.778Zm.952-1.617a.884.884,0,0,0-.918.909h1.713C640.536,292.067,640.292,291.682,639.741,291.682Z" transform="translate(-633.485 -288.912)" fill="#fff"/>
      <path id="패스_12" data-name="패스 12" d="M652.049,289.567h-.786v-.839h.813v-1.023l1.231-.1v1.119h1.276l-.069.848H653.3v2.307c0,.324.078.472.376.472a2.774,2.774,0,0,0,.611-.079l.131.865a2.717,2.717,0,0,1-.988.183c-1.381,0-1.381-.8-1.381-1.556Z" transform="translate(-642.735 -286.736)" fill="#fff"/>
      <path id="패스_13" data-name="패스 13" d="M663.672,288.165h-.9a2.376,2.376,0,0,0,.717-1.5,1.646,1.646,0,0,0-.148-.63h1.005a1.4,1.4,0,0,1,.105.5A2.242,2.242,0,0,1,663.672,288.165Z" transform="translate(-650.522 -285.675)" fill="#fff"/>
      <path id="패스_14" data-name="패스 14" d="M672.224,291.96a3.5,3.5,0,0,0-1.154-.209c-.376,0-.69.087-.69.384s.438.481.874.646c.559.21,1.25.446,1.25,1.223,0,.936-.595,1.469-1.879,1.469a4.144,4.144,0,0,1-1.529-.279l.192-.909a5.116,5.116,0,0,0,1.363.263c.376,0,.673-.079.673-.411,0-.306-.358-.455-.769-.629-.638-.271-1.346-.551-1.346-1.329,0-.979.7-1.39,1.792-1.39a3.628,3.628,0,0,1,1.4.254Z" transform="translate(-654.801 -288.893)" fill="#fff"/>
      <path id="패스_15" data-name="패스 15" d="M687.117,291.314a5.67,5.67,0,0,1,2.246-.551,1.952,1.952,0,0,1,1.285.35,4.115,4.115,0,0,1,1.635-.35,1.405,1.405,0,0,1,1.6,1.564v3.015h-1.215v-2.884c0-.568-.3-.76-.716-.76a2.031,2.031,0,0,0-.883.21,3.083,3.083,0,0,1,.034.419v3.015h-1.2v-2.884c0-.621-.342-.76-.753-.76a1.753,1.753,0,0,0-.821.192v3.452h-1.215Z" transform="translate(-666.995 -288.876)" fill="#fff"/>
      <path id="패스_16" data-name="패스 16" d="M714.985,295.246a7.077,7.077,0,0,1-2.228.376c-.935,0-1.809-.4-1.809-1.625V291.06h1.223V293.9c0,.63.384.777.821.8a2.641,2.641,0,0,0,.769-.1V291.06h1.224Z" transform="translate(-683.119 -289.077)" fill="#fff"/>
      <path id="패스_17" data-name="패스 17" d="M728.667,291.96a3.5,3.5,0,0,0-1.154-.209c-.376,0-.69.087-.69.384s.437.481.874.646c.559.21,1.25.446,1.25,1.223,0,.936-.595,1.469-1.879,1.469a4.149,4.149,0,0,1-1.53-.279l.193-.909a5.127,5.127,0,0,0,1.364.263c.376,0,.673-.079.673-.411,0-.306-.359-.455-.769-.629-.639-.271-1.346-.551-1.346-1.329,0-.979.7-1.39,1.792-1.39a3.628,3.628,0,0,1,1.4.254Z" transform="translate(-692.99 -288.893)" fill="#fff"/>
      <path id="패스_18" data-name="패스 18" d="M738.264,284.927h1.258v1.293h-1.258Zm1.258,6.467h-1.258V286.91h1.258Z" transform="translate(-701.601 -284.927)" fill="#fff"/>
      <path id="패스_19" data-name="패스 19" d="M744.45,293.177a2.094,2.094,0,0,1,2.307-2.334,4.648,4.648,0,0,1,1.18.149l-.113.918a4.47,4.47,0,0,0-.953-.114c-.716,0-1.2.306-1.2,1.39,0,1.127.541,1.415,1.213,1.415a5.142,5.142,0,0,0,1.068-.148l.069.865a4.782,4.782,0,0,1-1.3.192A2.119,2.119,0,0,1,744.45,293.177Z" transform="translate(-705.787 -288.93)" fill="#fff"/>
      <path id="패스_20" data-name="패스 20" d="M763.8,290.2h-1.022l-.139-4.248h1.327Zm.113,1.888h-1.259v-1.25h1.268Z" transform="translate(-718.092 -285.621)" fill="#fff"/>
    </g>
  </g>
</svg>
